# xmcd
#
# Track frame offsets:
#	150
#	11592
#	23925
#	35938
#	50163
#	63532
#	74542
#	83600
#	93212
#	117222
#
# Disc length: 1690 seconds
#
# Revision: 0
# Processed by: cddbd v1.5.2PL0 Copyright (c) Steve Scherf et al.
# Submitted via: dBpowerAMP V4.0
#
DISCID=8706980a
DTITLE=JOSE LUIS DIAZ FRAUTRO - ATRAPADO EN EL SMOG
DYEAR=1900
DGENRE=Blues
TTITLE0=CAMION DE RUTA 100
TTITLE1=CARNE DE PRESIDIO
TTITLE2=VAGO PERDIDO
TTITLE3=ATRAPADO EN EL SMOG
TTITLE4=¿SABES QUE PASO?
TTITLE5=BARRIOS POBRES
TTITLE6=DENLE LA VIADA
TTITLE7=DESEMPLEADO
TTITLE8=EL ULTIMO BLUES
TTITLE9=LA TORTITA RICA
EXTD=
EXTT0=
EXTT1=
EXTT2=
EXTT3=
EXTT4=
EXTT5=
EXTT6=
EXTT7=
EXTT8=
EXTT9=
PLAYORDER=
